<svg id="thewatch" width="400" height="400" viewBox="0 0 400 400" fill="none" xmlns="http://www.w3.org/2000/svg"><style>text {text-anchor: center;dominant-baseline: middle;}</style><defs id="defs"><linearGradient id="a" gradientTransform="rotate(90)" gradientUnits="objectBoundingBox"> <stop stop-color="#00000F"/> <stop offset="0.12708" stop-color="#505050"/> <stop offset="0.552083" stop-color="#030017"/> <stop offset="0.8708333" stop-color="#404040"/> <stop offset="1" stop-color="#0E0D0F"/></linearGradient><linearGradient id="b" gradientUnits="objectBoundingBox"> <stop stop-color="#B20931"></stop> </linearGradient> <linearGradient id="b1" gradientUnits="objectBoundingBox"> <stop stop-color="#4DF6CE"></stop> </linearGradient><linearGradient id="c" gradientTransform="rotate(72)" gradientUnits="objectBoundingBox"> <stop stop-color="#016032"/> <stop offset="0.4975" stop-color="#01993D"/> <stop offset="0.989583" stop-color="#016032"/> </linearGradient> <linearGradient id="c1" gradientUnits="objectBoundingBox"> <stop stop-color="#FAE1E1"/> </linearGradient></defs><defs><filter id="f1"><feDropShadow dx="-5" dy="-2" stdDeviation="0.5" flood-opacity="0.2"></feDropShadow></filter><filter id="innerShadow" x="0" y="0" width="100%" height="100%" filterUnits="userSpaceOnUse" color-interpolation-filters="sRGB"><feFlood flood-opacity="0" result="BackgroundImageFix"></feFlood><feBlend mode="normal" in="SourceGraphic" in2="BackgroundImageFix" result="shape"></feBlend><feColorMatrix in="SourceAlpha" type="matrix" values="0 0 0 0 0 0 0 0 0 0 0 0 0 0 0 0 0 0 127 0" result="hardAlpha"></feColorMatrix><feOffset dy="-4" dx="-5"></feOffset><feGaussianBlur stdDeviation="2.5"></feGaussianBlur><feComposite in2="hardAlpha" operator="arithmetic" k2="-1.5" k3="1.5"></feComposite><feColorMatrix type="matrix" values="0 0 0 0 0 0 0 0 0 0 0 0 0 0 0 0 0 0 0.45 0"></feColorMatrix><feBlend mode="normal" in2="shape" result="effect_innerShadow"></feBlend></filter><filter id="blur" height="300%" width="300%" x="-75%" y="-75%"><feMorphology operator="dilate" radius="1" in="SourceAlpha" result="thicken"></feMorphology><feGaussianBlur in="thicken" stdDeviation="2" result="blurred"></feGaussianBlur><feFlood flood-color="#000" result="glowColor" flood-opacity="0.9"></feFlood><feComposite in="glowColor" in2="blurred" operator="in" result="softGlow_colored"></feComposite><feMerge><feMergeNode in="softGlow_colored"></feMergeNode><feMergeNode in="SourceGraphic"></feMergeNode></feMerge></filter><path id="datePath" d="M159.568 98.1748C172.334 92.523 186.143 89.6104 200.105 89.6251C214.066 89.6397 227.869 92.5811 240.623 98.2596" stroke="black"></path></defs><rect x="0" y="0" width="400" height="400" fill="white" fill-opacity="0"></rect><image id="back-image" href="" x="0" y="0" width="400" height="400" preserveAspectRatio="xMidYMid slice"></image><g id="strap"><path d="M270.16 60C269.66 43 271.16 18 268.16 1H132.16C129.16 21 130.16 43.6 130.16 60H270.16Z" fill="#201E1E" stroke="black" stroke-width="0.1"/> <path d="M171.387 58H187.933C190.903 41.0417 190.903 41.5 187.933 25H171.388C168.418 41.5 168.418 41.0417 171.387 58Z" fill="url(#a)" fill-opacity="0.75"/> <path d="M171.387 24H187.933C190.204 11.4264 190.738 8.72655 189.536 1H169.784C168.582 8.72655 169.117 11.4264 171.387 24Z" fill="url(#a)" fill-opacity="0.75"/> <path d="M191.493 45H208.827C211.938 27.5278 211.938 28 208.827 11H191.494C188.382 28 188.382 27.5278 191.493 45Z" fill="url(#a)" fill-opacity="0.75"/> <path d="M191.494 10H208.827C209.536 6.25549 210.083 3.38668 210.469 1H189.853C190.238 3.38668 190.785 6.25549 191.494 10Z" fill="url(#a)" fill-opacity="0.75"/> <path d="M212.387 58H228.933C231.903 41.0417 231.903 41.5 228.933 25H212.388C209.418 41.5 209.418 41.0417 212.387 58Z" fill="url(#a)" fill-opacity="0.75"/> <path d="M212.387 24H228.933C231.204 11.4264 231.738 8.72655 230.536 1H210.784C209.582 8.72655 210.117 11.4264 212.387 24Z" fill="url(#a)" fill-opacity="0.75"/> <path d="M232.16 42H270.099C270.099 24.5 270.599 22 268.789 6H232.16L232.16 6.00126C229.66 24 229.66 24.0004 232.16 42Z" fill="url(#a)"/> <path d="M232.71 76H270.16V42.5H232.71L232.71 76Z" fill="url(#a)"/> <path d="M168.162 42H130.223C130.223 24.5 129.724 22 131.533 6H168.162L168.162 6.00126C170.662 24 170.662 24.0004 168.162 42Z" fill="url(#a)"/> <path d="M168.307 5H131.66L132.162 1H169.38C169.66 1.5 169.38 3.33536 168.307 5Z" fill="url(#a)"/> <path d="M232.031 5H268.66L268.16 1H231.262C231.16 1.5 230.952 3.33536 232.031 5Z" fill="url(#a)"/> <path d="M167.612 76H130.162V42.5H167.612L167.612 76Z" fill="url(#a)"/> <path d="M270 342C269.5 359 271 384 268 401H132C129 381 130 358.4 130 342H270Z" fill="#201E1E" stroke="black" stroke-width="0.1"/> <path d="M171.227 344H187.773C190.742 360.958 190.743 360.5 187.772 377H171.228C168.257 360.5 168.258 360.958 171.227 344Z" fill="url(#a)" fill-opacity="0.75"/> <path d="M171.227 378H187.773C190.043 390.574 190.578 393.273 189.376 401H169.624C168.422 393.273 168.957 390.574 171.227 378Z" fill="url(#a)" fill-opacity="0.75"/> <path d="M191.333 357H208.667C211.778 374.472 211.778 374 208.666 391H191.334C188.222 374 188.222 374.472 191.333 357Z" fill="url(#a)" fill-opacity="0.75"/> <path d="M191.334 392H208.667C209.376 395.745 209.923 398.613 210.308 401H189.692C190.078 398.613 190.625 395.745 191.334 392Z" fill="url(#a)" fill-opacity="0.75"/> <path d="M212.227 344H228.773C231.742 360.958 231.743 360.5 228.772 377H212.228C209.257 360.5 209.258 360.958 212.227 344Z" fill="url(#a)" fill-opacity="0.75"/> <path d="M212.227 378H228.773C231.043 390.574 231.578 393.273 230.376 401H210.624C209.422 393.273 209.957 390.574 212.227 378Z" fill="url(#a)" fill-opacity="0.75"/> <path d="M232 360H269.939C269.939 377.5 270.438 380 268.629 396H232L232 395.999C229.5 378 229.5 378 232 360Z" fill="url(#a)"/> <path d="M232.55 326H270V359.5H232.55L232.55 326Z" fill="url(#a)"/> <path d="M168.002 360H130.063C130.063 377.5 129.564 380 131.373 396H168.002L168.002 395.999C170.502 378 170.502 378 168.002 360Z" fill="url(#a)"/> <path d="M168.147 397H131.5L132.002 401H169.22C169.5 400.5 169.22 398.665 168.147 397Z" fill="url(#a)"/> <path d="M231.87 397H268.5L268 401H231.102C231 400.5 230.792 398.665 231.87 397Z" fill="url(#a)"/> <path d="M167.452 326H130.002V359.5H167.452L167.452 326Z" fill="url(#a)"/></g><g id="crown"><rect x="350" y="191" width="22" height="18" fill="url(#c)" stroke="url(#a)"></rect><rect x="360" y="182" width="22" height="36" rx="5" fill="url(#c)"></rect><rect x="360" y="182.5" width="21" height="35" rx="4.5" stroke="url(#a)"></rect><path d="M370 185.481V215.215" stroke="white" stroke-opacity="0.4" stroke-width="20" stroke-dasharray="3 3"></path></g><g id="bodyDial"><path d="M381 232.671V220.934C381 218.209 378.862 216 376.224 216H361.694C359.624 216 357.789 217.377 357.148 219.411L349.247 244.52C347.892 248.822 352.384 252.583 356.176 250.321L378.608 236.949C380.088 236.067 381 234.436 381 232.671Z" fill="url(#a)"></path><path d="M381 166.8L380.998 178.202C380.998 180.849 378.859 182.996 376.221 182.997L361.69 183C359.619 183.001 357.785 181.662 357.144 179.686L349.246 155.296C347.893 151.117 352.385 147.463 356.178 149.659L378.609 162.644C380.089 163.501 381 165.085 381 166.8Z" fill="url(#a)"></path><path d="M270 21H290.483L310 96H270V21Z" fill="url(#a)"></path><path d="M130 21H109.517L90 96H130V21Z" fill="url(#a)"></path><path d="M270 379H290.483L310 304H270V379Z" fill="url(#a)"></path><path d="M130 379H109.517L90 304H130V379Z" fill="url(#a)"></path><path d="M200 345C280.081 345 345 280.081 345 200C345 119.919 280.081 55 200 55C119.919 55 55 119.919 55 200C55 280.081 119.919 345 200 345Z" fill="url(#b)" stroke="url(#a)" stroke-width="34"></path></g><g id="lcd"><mask id="bg-mask"><circle cx="200" cy="200" r="130" fill="white" stroke="black" stroke-width="2"></circle></mask><image id="bg-image" href="" x="70" y="70" width="260" height="260" mask="url(#bg-mask)" preserveAspectRatio="xMidYMid slice"></image></g><g id="indicators"><mask id="hourMarkerMask"><path d="M213.589 70.7122C246.704 74.1928 277.222 90.2478 298.848 115.567C320.475 140.885 331.562 173.538 329.823 206.79C328.083 240.043 313.651 271.36 289.501 294.285C265.351 317.209 233.325 329.993 200.027 330C166.729 330.007 134.698 317.237 110.539 294.322C86.3791 271.408 71.9334 240.096 70.1803 206.844C68.4272 173.593 79.5003 140.936 101.116 115.608C122.732 90.2801 153.243 74.2123 186.357 70.7178L200 200L213.589 70.7122Z" fill="white"></path><path d="M186.411 70.7122C195.437 69.7636 204.536 69.7626 213.562 70.7093L200 200L186.411 70.7122Z" fill="black"></path></mask><g id="minuteMarker"><circle cx="200" cy="200" r="126" stroke="url(#b1)"/> <circle cx="200" cy="200" r="121" stroke="url(#b1)"/> <circle cx="200" cy="200" r="123.5" stroke-width="4" stroke="url(#b1)" stroke-dasharray=" 1 11.932" stroke-dashoffset=".5"/> <circle cx="200" cy="200" r="123.5" stroke-width="2" stroke="url(#b1)" stroke-dasharray=" 0.5 2.086" stroke-dashoffset=".25"/></g><g id="hourMarker"  ><g font-family="Tahoma" font-size="16" dominant-baseline="central" text-anchor="middle" fill="url(#c)" stroke="url(#a)" stroke-width=".5"><text x="200" y="90">gm</text><text x="200" y="90" transform="rotate(30 200 200)">gm</text><text x="200" y="90" transform="rotate(60 200 200)">gm</text><text x="200" y="90" transform="rotate(90 200 200)">gm</text><text x="200" y="90" transform="rotate(120 200 200)">gm</text><text x="200" y="90" transform="rotate(150 200 200)">gm</text><text x="200" y="90" transform="rotate(180 200 200)">gm</text><text x="200" y="90" transform="rotate(210 200 200)">gm</text><text x="200" y="90" transform="rotate(240 200 200)">gm</text><text x="200" y="90" transform="rotate(270 200 200)">gm</text><text x="200" y="90" transform="rotate(300 200 200)">gm</text><text x="200" y="90" transform="rotate(330 200 200)">gm</text></g></g></g><g id="weather"><image filter="url(#blur)" id="w-icon" href="" x="90.5" y="200.5" width="64" height="64" opacity="1"></image><text filter="url(#blur)" id="w-city" x="101.5" y="264.5" font-family="Arial" font-size="16" font-weight="bold" dominant-baseline="central" text-anchor="start" fill="white" stroke="black" stroke-width="0.8"></text><text filter="url(#blur)" id="w-temp" x="122.5" y="282.5" font-family="Arial" font-size="12" font-weight="bold" dominant-baseline="central" text-anchor="start" fill="white" stroke="black" stroke-width="0.6" style="background-color:red"></text></g><g id="day"><path d="M199.35 79.375L196.752 74.875C196.464 74.375 196.825 73.75 197.402 73.75H202.598C203.175 73.75 203.536 74.375 203.248 74.875L200.65 79.375C200.361 79.875 199.639 79.875 199.35 79.375Z" fill="url(#a)" stroke="url(#c)" stroke-width="1"></path><path d="M247.792 92.1584C232.787 85.4778 216.548 82.0173 200.123 82.0001C183.698 81.9829 167.452 85.4094 152.433 92.0586L159.568 108.175C172.334 102.523 186.143 99.6104 200.105 99.6251C214.066 99.6397 227.869 102.581 240.623 108.26L247.792 92.1584Z" fill="white" stroke-width="1" stroke="#1c1c1c" filter="url(#innerShadow)"></path><text textLength="81" lengthAdjust="spacing"><textPath id="dayu" textLength="81" lengthAdjust="spacing" href="#datePath" font-family="Arial" font-size="10" font-weight="bold" dominant-baseline="central" text-anchor="start" fill="black">MONDAY</textPath></text></g><g filter="url(#f1)"><g id="houru" transform="rotate(305,200,200)"><path d="M191.021 147.96L200 128.397L208.979 147.96L205.437 186H194.563L191.021 147.96Z" fill="url(#a)" stroke="url(#c)" stroke-width="2"/> <rect x="197.5" y="186.5" width="5" height="13" fill="url(#a)" stroke="url(#c)"/></g></g><g filter="url(#f1)"><g id="minu" transform="rotate(63.2,200,200)"><rect x="197.5" y="188.382" width="5" height="11.1176" fill="url(#a)" stroke="url(#c)"/> <path d="M194 104.435L200 98.4164L206 104.435V186.049L200 188.802L194 186.049V104.435Z" fill="url(#a)" stroke="url(#c)" stroke-width="2"/></g></g><g filter="url(#f1)"><g id="secondu" transform="rotate(181,200,200)"><path d="M199.244 73.995a.755.755 0 0 1 .756-.745c.414 0 .754.335.756.745l.987 151a.75.75 0 0 1-.75.755h-1.986a.75.75 0 0 1-.75-.755l.987-151Z" fill="url(#a)" stroke="url(#c)" stroke-width=".5"/><path d="m198.077 98.5.857-6h2.132l.857 6h-3.846Z" fill="url(#a)" stroke="url(#c)"/><circle cx="200" cy="200" r="6.5" fill="url(#a)" stroke="url(#c)"/></g></g><g id="bezelCrystal"><path d="M200 344C279.529 344 344 279.529 344 200C344 120.471 279.529 56 200 56C120.471 56 56 120.471 56 200C56 279.529 120.471 344 200 344Z" stroke="url(#c)" stroke-width="28"></path></g><g id="bezelIndicator"><circle cx="200" cy="200" r="135" stroke-width="2" stroke="url(#c1)" stroke-dasharray="2 12.137" stroke-dashoffset="1"/><circle cx="200" cy="200" r="144" stroke-width="20" stroke="url(#c1)" stroke-dasharray="5 145.796" stroke-dashoffset="2.5"/><g class="ind" font-family="Trebuchet MS" font-size="20" dominant-baseline="central" text-anchor="middle" fill="url(#b)" stroke="url(#c1)" stroke-width=".5"><text x="200" y="55" transform="rotate(60 200 200)">10</text><text x="200" y="55" transform="rotate(120 200 200)">20</text><text x="200" y="55" transform="rotate(180 200 200)">30</text><text x="200" y="55" transform="rotate(240 200 200)">40</text><text x="200" y="55" transform="rotate(300 200 200)">50</text></g><path d="M200.366 65.5a1 1 0 0 1-1.732 0l-8.227-14.25a1 1 0 0 1 .866-1.5h16.454a1 1 0 0 1 .866 1.5l-8.227 14.25Z" fill="url(#b)" stroke="url(#c1)"/></g><script> var apiTime,_offSet=0,_location="",userOffset=0,crownOut=!1;const weekdays=["SUNDAY","MONDAY","TUESDAY","WEDNESDAY","THURSDAY","FRIDAY","SATURDAY"];async function getUTC(){await fetch("https://worldtimeapi.org/api/timezone/Etc/UTC").then((response=>response.json())).then((data=>{apiTime=data.unixtime}))}const hourHand=document.getElementById("houru"),minHand=document.getElementById("minu"),secHand=document.getElementById("secondu"),dayText=document.getElementById("dayu"),dateText=document.getElementById("dateu"),weatherIcon=document.getElementById("w-icon"),weatherCity=document.getElementById("w-city"),weatherTemp=document.getElementById("w-temp");async function getWeather(){fetch("https://watchenz.xyz/api/currentweather?city="+_location).then((resp=>resp.json())).then((w=>{w.ok?(weatherIcon.setAttribute("href","https:"+w.data.current.condition.icon),weatherCity.innerHTML=w.data.location.name,weatherTemp.innerHTML=w.data.current.temp_c+"\u00b0C/"+w.data.current.temp_f+"\u00b0F"):console.log(w.msg)})).catch(console.error)}const crown=document.getElementById("crown");function actual(){if(crownOut)return;const d=function(dt){return new Date(dt.getTime()+6e4*dt.getTimezoneOffset()+userOffset)}(function(){var userNow=new Date;userOffset=Math.floor(userNow.getTime())-1e3*apiTime;var dt=new Date(0);return dt.setUTCSeconds(apiTime+_offSet),dt}());!function(d){var angleSecond=6*d.getSeconds()+6*d.getMilliseconds()/1e3,angleMin=6*d.getMinutes()+.1*d.getSeconds(),angleHour=30*d.getHours()+.5*d.getMinutes();minHand.setAttribute("transform",`rotate(${angleMin},200,200)`),hourHand.setAttribute("transform",`rotate(${angleHour},200,200)`),secHand.setAttribute("transform",`rotate(${angleSecond},200,200)`)}(d);if(document.getElementById("day")){dayText.innerHTML=weekdays[d.getDay()]}if(document.getElementById("date")){dateText.innerHTML=d.getDate()}}crown.addEventListener("click",(async()=>{if(crownOut=!crownOut,!crownOut)return await getUTC(),void crown.setAttribute("transform","translate(0 0)");crown.setAttribute("transform","translate(10 0)")})),async function(){getUTC().catch(console.error),getWeather().catch(console.error),setInterval(actual,200),setInterval(getWeather,15e3)}();</script></svg>